<svg width="61" height="61" viewBox="0 0 61 61" fill="none" xmlns="http://www.w3.org/2000/svg">
<rect x="1.09143" y="0.938965" width="58.9986" height="59" rx="15.5" fill="white" stroke="#E0E0E0"/>
<path d="M41.3575 15.8994H20.1159C17.9519 15.8994 16.1975 17.6537 16.1975 19.8178V41.0595C16.1975 43.2236 17.9518 44.9779 20.1159 44.9779H30.5922L30.61 34.5868H27.9104C27.5596 34.5868 27.2748 34.3032 27.2735 33.9523L27.2605 30.6029C27.2592 30.2501 27.5448 29.9634 27.8975 29.9634H30.5922V26.727C30.5922 22.9711 32.8861 20.926 36.2366 20.926H38.9859C39.3376 20.926 39.6229 21.2112 39.6229 21.563V24.3873C39.6229 24.739 39.3378 25.0241 38.9862 25.0243L37.299 25.0251C35.4769 25.0251 35.1241 25.8909 35.1241 27.1616V29.9635H39.1279C39.5094 29.9635 39.8053 30.2966 39.7604 30.6755L39.3634 34.025C39.3254 34.3455 39.0536 34.587 38.7309 34.587H35.1419L35.1241 44.9781H41.3576C43.5217 44.9781 45.276 43.2238 45.276 41.0597V19.8178C45.2759 17.6537 43.5216 15.8994 41.3575 15.8994Z" fill="#475993"/>
</svg>
