<svg width="50" height="50" viewBox="0 0 50 50" fill="none" xmlns="http://www.w3.org/2000/svg">
<rect x="0.384766" y="0.119141" width="49.3248" height="49.3259" rx="13.1536" fill="white"/>
<path d="M14.7906 14.6553C12.9481 16.5691 13.3252 18.6021 13.3252 24.7783C13.3252 29.9072 12.4304 35.0488 17.1138 36.2592C18.5763 36.6353 31.5343 36.6353 32.9948 36.2572C34.9448 35.7541 36.5313 34.1725 36.7482 31.4146C36.7785 31.0297 36.7785 18.5337 36.7472 18.141C36.5167 15.2033 34.7084 13.5103 32.3256 13.1674C31.7795 13.0883 31.6701 13.0648 28.8683 13.06C18.9299 13.0648 16.7514 12.6223 14.7906 14.6553Z" fill="url(#paint0_linear)"/>
<path d="M25.0472 16.1265C21.5 16.1265 18.1315 15.811 16.8449 19.113C16.3135 20.4768 16.3906 22.248 16.3906 24.7841C16.3906 27.0096 16.3193 29.1012 16.8449 30.4542C18.1286 33.7582 21.5244 33.4417 25.0453 33.4417C28.4421 33.4417 31.9444 33.7953 33.2466 30.4542C33.7791 29.0768 33.7009 27.3319 33.7009 24.7841C33.7009 21.402 33.8875 19.2185 32.2472 17.5792C30.5865 15.9184 28.3405 16.1265 25.0433 16.1265H25.0472ZM24.2716 17.6867C31.6708 17.675 32.6126 16.8524 32.0929 28.2796C31.9082 32.3211 28.8309 31.8776 25.0482 31.8776C18.1511 31.8776 17.9527 31.6803 17.9527 24.7802C17.9527 17.8 18.4998 17.6906 24.2716 17.6847V17.6867ZM29.6681 19.1238C29.0947 19.1238 28.6297 19.5888 28.6297 20.1622C28.6297 20.7357 29.0947 21.2007 29.6681 21.2007C30.2416 21.2007 30.7066 20.7357 30.7066 20.1622C30.7066 19.5888 30.2416 19.1238 29.6681 19.1238ZM25.0472 20.3381C22.5922 20.3381 20.6022 22.3291 20.6022 24.7841C20.6022 27.2391 22.5922 29.2292 25.0472 29.2292C27.5023 29.2292 29.4913 27.2391 29.4913 24.7841C29.4913 22.3291 27.5023 20.3381 25.0472 20.3381ZM25.0472 21.8982C28.8622 21.8982 28.867 27.67 25.0472 27.67C21.2333 27.67 21.2274 21.8982 25.0472 21.8982Z" fill="white"/>
<defs>
<linearGradient id="paint0_linear" x1="14.8356" y1="35.0088" x2="36.6266" y2="16.149" gradientUnits="userSpaceOnUse">
<stop stop-color="#FFDD55"/>
<stop offset="0.5" stop-color="#FF543E"/>
<stop offset="1" stop-color="#C837AB"/>
</linearGradient>
</defs>
</svg>
