<svg width="61" height="61" viewBox="0 0 61 61" fill="none" xmlns="http://www.w3.org/2000/svg">
<rect x="0.900757" y="0.574219" width="58.9986" height="59" rx="15.5" stroke="#E0E0E0"/>
<path d="M43.6889 21.8333C42.7005 22.2668 41.6474 22.5542 40.5494 22.6937C41.6789 22.0193 42.541 20.9596 42.9464 19.6822C41.8932 20.3101 40.7304 20.7536 39.4913 21.0011C38.4913 19.9363 37.066 19.2769 35.5112 19.2769C32.4947 19.2769 30.0662 21.7253 30.0662 24.7269C30.0662 25.1588 30.1027 25.5741 30.1924 25.9694C25.6626 25.7485 21.6543 23.5775 18.9617 20.2702C18.4916 21.0858 18.2158 22.0193 18.2158 23.0243C18.2158 24.9113 19.1876 26.584 20.6361 27.5525C19.7607 27.5359 18.9019 27.2817 18.1743 26.8814C18.1743 26.898 18.1743 26.9196 18.1743 26.9412C18.1743 29.589 20.063 31.7883 22.5397 32.2949C22.0962 32.4162 21.6128 32.4743 21.1111 32.4743C20.7623 32.4743 20.4102 32.4544 20.0796 32.3813C20.7856 34.5391 22.7889 36.1254 25.1709 36.1769C23.3171 37.6271 20.9633 38.5008 18.4152 38.5008C17.9683 38.5008 17.5398 38.4809 17.1112 38.4261C19.5248 39.9825 22.3852 40.8712 25.4699 40.8712C35.4963 40.8712 40.9779 32.5657 40.9779 25.3665C40.9779 25.1256 40.9696 24.893 40.958 24.6622C42.0394 23.8947 42.948 22.9363 43.6889 21.8333Z" fill="#E0E0E0"/>
</svg>
