<svg width="30" height="30" viewBox="0 0 30 30" fill="none" xmlns="http://www.w3.org/2000/svg">
<path d="M25.5175 0.102051H4.27595C2.11192 0.102051 0.357544 1.85635 0.357544 4.02046V25.2622C0.357544 27.4263 2.11185 29.1806 4.27595 29.1806H14.7522L14.77 18.7895H12.0704C11.7196 18.7895 11.4349 18.5058 11.4335 18.155L11.4206 14.8055C11.4192 14.4527 11.7048 14.1661 12.0576 14.1661H14.7523V10.9296C14.7523 7.17375 17.0461 5.12865 20.3966 5.12865H23.1459C23.4977 5.12865 23.7829 5.41383 23.7829 5.76566V8.58996C23.7829 8.94164 23.4979 9.22675 23.1463 9.22696L21.459 9.22774C19.637 9.22774 19.2841 10.0936 19.2841 11.3642V14.1661H23.2879C23.6694 14.1661 23.9654 14.4993 23.9204 14.8781L23.5234 18.2276C23.4854 18.5481 23.2136 18.7896 22.8909 18.7896H19.302L19.2841 29.1807H25.5177C27.6817 29.1807 29.436 27.4264 29.436 25.2624V4.02046C29.4359 1.85635 27.6816 0.102051 25.5175 0.102051Z" fill="#475993"/>
</svg>
