<svg width="51" height="50" viewBox="0 0 51 50" fill="none" xmlns="http://www.w3.org/2000/svg">
<rect x="0.705078" y="0.119141" width="49.3248" height="49.3259" rx="13.1536" fill="white"/>
<path d="M33.9305 25.903C33.5108 25.3687 33.6309 25.1311 33.9305 24.6535C33.9359 24.6481 37.4007 19.8226 37.7577 18.1861L37.7599 18.185C37.9373 17.5887 37.7599 17.1504 36.9021 17.1504H34.0636C33.341 17.1504 33.0078 17.5265 32.8293 17.9474C32.8293 17.9474 31.3841 21.434 29.3396 23.6941C28.6798 24.3472 28.3747 24.5565 28.0145 24.5565C27.8371 24.5565 27.5612 24.3472 27.5612 23.7508V18.185C27.5612 17.4698 27.359 17.1504 26.7608 17.1504H22.2975C21.8443 17.1504 21.5749 17.484 21.5749 17.7947C21.5749 18.4729 22.5971 18.6288 22.7032 20.5367V24.6764C22.7032 25.5835 22.5398 25.7503 22.1774 25.7503C21.2125 25.7503 18.8706 22.2495 17.4827 18.2428C17.2025 17.4655 16.9288 17.1515 16.2008 17.1515H13.3613C12.551 17.1515 12.3877 17.5276 12.3877 17.9485C12.3877 18.692 13.3526 22.3891 16.8747 27.2734C19.2221 30.6074 22.5279 32.414 25.5351 32.414C27.3427 32.414 27.5634 32.0128 27.5634 31.3226C27.5634 28.1369 27.4001 27.836 28.3055 27.836C28.7252 27.836 29.4478 28.0453 31.1353 29.6535C33.064 31.5603 33.381 32.414 34.4606 32.414H37.2991C38.1082 32.414 38.5182 32.0128 38.2824 31.2212C37.7426 29.5564 34.0949 26.1319 33.9305 25.903Z" fill="#4B729F"/>
</svg>
