<svg width="50" height="50" viewBox="0 0 50 50" fill="none" xmlns="http://www.w3.org/2000/svg">
<rect x="0.0273438" y="0.119141" width="49.3248" height="49.3259" rx="13.1536" fill="white"/>
<path d="M32.8185 14.9458H16.5607C13.371 14.9458 10.7852 17.5316 10.7852 20.7213V28.8485C10.7852 32.0383 13.371 34.6241 16.5607 34.6241H32.8185C36.0082 34.6241 38.594 32.0383 38.594 28.8485V20.7213C38.594 17.5316 36.0082 14.9458 32.8185 14.9458ZM28.9125 25.1804L21.3082 28.8071C21.1056 28.9038 20.8716 28.756 20.8716 28.5316V21.0513C20.8716 20.8237 21.1118 20.6761 21.3148 20.779L28.9191 24.6325C29.1452 24.7471 29.1413 25.0713 28.9125 25.1804Z" fill="#F61C0D"/>
</svg>
