<svg width="61" height="61" viewBox="0 0 61 61" fill="none" xmlns="http://www.w3.org/2000/svg">
<rect x="1.23743" y="0.578369" width="58.9986" height="59" rx="15.5" stroke="#E0E0E0"/>
<path d="M41.3575 15.5388H20.1159C17.9519 15.5388 16.1975 17.2931 16.1975 19.4572V40.6989C16.1975 42.863 17.9518 44.6173 20.1159 44.6173H30.5922L30.61 34.2263H27.9104C27.5596 34.2263 27.2748 33.9426 27.2735 33.5917L27.2605 30.2423C27.2592 29.8895 27.5448 29.6028 27.8975 29.6028H30.5922V26.3664C30.5922 22.6105 32.8861 20.5654 36.2366 20.5654H38.9859C39.3376 20.5654 39.6229 20.8506 39.6229 21.2024V24.0267C39.6229 24.3784 39.3378 24.6635 38.9862 24.6637L37.299 24.6645C35.4769 24.6645 35.1241 25.5304 35.1241 26.801V29.6029H39.1279C39.5093 29.6029 39.8053 29.936 39.7604 30.3149L39.3634 33.6644C39.3254 33.9849 39.0536 34.2264 38.7309 34.2264H35.1419L35.1241 44.6175H41.3576C43.5217 44.6175 45.276 42.8632 45.276 40.6992V19.4572C45.2759 17.2931 43.5216 15.5388 41.3575 15.5388Z" fill="#E0E0E0"/>
</svg>
