<svg width="51" height="50" viewBox="0 0 51 50" fill="none" xmlns="http://www.w3.org/2000/svg">
<rect x="0.703125" y="0.119141" width="49.3248" height="49.3259" rx="13.1536" fill="white"/>
<path d="M34.0971 12.8291H16.6344C14.8554 12.8291 13.4131 14.2713 13.4131 16.0504V33.5132C13.4131 35.2923 14.8553 36.7345 16.6344 36.7345H25.2469L25.2616 28.192H23.0422C22.7538 28.192 22.5197 27.9588 22.5186 27.6704L22.508 24.9168C22.5069 24.6268 22.7417 24.3911 23.0317 24.3911H25.247V21.7304C25.247 18.6427 27.1327 16.9615 29.8872 16.9615H32.1474C32.4366 16.9615 32.6711 17.1959 32.6711 17.4851V19.807C32.6711 20.0961 32.4367 20.3305 32.1477 20.3307L30.7606 20.3313C29.2627 20.3313 28.9726 21.0431 28.9726 22.0877V24.3912H32.2641C32.5777 24.3912 32.8211 24.665 32.7841 24.9765L32.4577 27.7301C32.4265 27.9936 32.2031 28.1921 31.9377 28.1921H28.9873L28.9726 36.7346H34.0972C35.8762 36.7346 37.3184 35.2924 37.3184 33.5134V16.0504C37.3184 14.2713 35.8762 12.8291 34.0971 12.8291Z" fill="#475993"/>
</svg>
