<svg width="30" height="29" viewBox="0 0 30 29" fill="none" xmlns="http://www.w3.org/2000/svg">
<path d="M2.45654 2.32357C0.215333 4.65153 0.674032 7.12446 0.674032 14.6372C0.674032 20.8759 -0.414488 27.1302 5.28242 28.6025C7.06136 29.06 22.8235 29.06 24.6001 28.6002C26.972 27.9882 28.9019 26.0642 29.1657 22.7096C29.2025 22.2413 29.2025 7.04128 29.1645 6.56357C28.8841 2.99023 26.6844 0.930832 23.7861 0.513724C23.1218 0.417469 22.9887 0.388948 19.5805 0.383007C7.49154 0.388948 4.84154 -0.14937 2.45654 2.32357Z" fill="#E0E0E0"/>
<path d="M14.9317 4.11319C10.6169 4.11319 6.51947 3.72936 4.95443 7.74595C4.30797 9.40487 4.40185 11.5593 4.40185 14.6443C4.40185 17.3513 4.3151 19.8955 4.95443 21.5414C6.51591 25.5604 10.6466 25.1753 14.9294 25.1753C19.0612 25.1753 23.3214 25.6055 24.9055 21.5414C25.5531 19.8658 25.4581 17.7435 25.4581 14.6443C25.4581 10.5302 25.685 7.87429 23.6898 5.88025C21.6696 3.86007 18.9376 4.11319 14.927 4.11319H14.9317ZM13.9882 6.01097C22.9887 5.99671 24.1342 4.99613 23.5021 18.8962C23.2775 23.8123 19.5342 23.2728 14.9329 23.2728C6.54324 23.2728 6.30201 23.0328 6.30201 14.6395C6.30201 6.14882 6.96748 6.01572 13.9882 6.00859V6.01097ZM20.5526 7.75902C19.855 7.75902 19.2894 8.32467 19.2894 9.02223C19.2894 9.71978 19.855 10.2854 20.5526 10.2854C21.2501 10.2854 21.8158 9.71978 21.8158 9.02223C21.8158 8.32467 21.2501 7.75902 20.5526 7.75902ZM14.9317 9.23613C11.9454 9.23613 9.52479 11.658 9.52479 14.6443C9.52479 17.6306 11.9454 20.0512 14.9317 20.0512C17.918 20.0512 20.3375 17.6306 20.3375 14.6443C20.3375 11.658 17.918 9.23613 14.9317 9.23613ZM14.9317 11.1339C19.5722 11.1339 19.5782 18.1546 14.9317 18.1546C10.2925 18.1546 10.2853 11.1339 14.9317 11.1339Z" fill="white"/>
</svg>
