<svg width="61" height="61" viewBox="0 0 61 61" fill="none" xmlns="http://www.w3.org/2000/svg">
<rect x="1.23254" y="0.578369" width="58.9986" height="59" rx="15.5" stroke="#E0E0E0"/>
<path d="M18.2964 17.7562C16.0552 20.0841 16.5139 22.5571 16.5139 30.0698C16.5139 36.3086 15.4254 42.5628 21.1223 44.0352C22.9012 44.4927 38.6634 44.4927 40.4399 44.0328C42.8119 43.4208 44.7417 41.4969 45.0055 38.1422C45.0424 37.674 45.0424 22.4739 45.0043 21.9962C44.7239 18.4228 42.5243 16.3634 39.6259 15.9463C38.9616 15.8501 38.8285 15.8216 35.4204 15.8156C23.3314 15.8216 20.6814 15.2832 18.2964 17.7562Z" fill="#E0E0E0"/>
<path d="M30.7716 19.5456C26.4567 19.5456 22.3593 19.1617 20.7943 23.1783C20.1478 24.8372 20.2417 26.9917 20.2417 30.0766C20.2417 32.7837 20.1549 35.3279 20.7943 36.9738C22.3558 40.9927 26.4864 40.6077 30.7692 40.6077C34.9011 40.6077 39.1613 41.0379 40.7453 36.9738C41.393 35.2982 41.2979 33.1758 41.2979 30.0766C41.2979 25.9626 41.5249 23.3067 39.5297 21.3126C37.5095 19.2924 34.7775 19.5456 30.7668 19.5456H30.7716ZM29.828 21.4433C38.8285 21.4291 39.9741 20.4285 39.3419 34.3285C39.1173 39.2447 35.374 38.7052 30.7728 38.7052C22.3831 38.7052 22.1419 38.4651 22.1419 30.0719C22.1419 21.5812 22.8073 21.4481 29.828 21.441V21.4433ZM36.3924 23.1914C35.6949 23.1914 35.1292 23.757 35.1292 24.4546C35.1292 25.1522 35.6949 25.7178 36.3924 25.7178C37.09 25.7178 37.6556 25.1522 37.6556 24.4546C37.6556 23.757 37.09 23.1914 36.3924 23.1914ZM30.7716 24.6685C27.7853 24.6685 25.3646 27.0903 25.3646 30.0766C25.3646 33.0629 27.7853 35.4836 30.7716 35.4836C33.7579 35.4836 36.1773 33.0629 36.1773 30.0766C36.1773 27.0903 33.7579 24.6685 30.7716 24.6685ZM30.7716 26.5663C35.4121 26.5663 35.418 33.587 30.7716 33.587C26.1323 33.587 26.1252 26.5663 30.7716 26.5663Z" fill="white"/>
</svg>
