<svg width="27" height="23" viewBox="0 0 27 23" fill="none" xmlns="http://www.w3.org/2000/svg">
<path d="M26.8489 3.40068C25.8605 3.83422 24.8074 4.1216 23.7094 4.26113C24.839 3.58672 25.7011 2.52694 26.1064 1.24955C25.0532 1.87744 23.8905 2.32096 22.6513 2.56846C21.6513 1.5037 20.2261 0.844238 18.6713 0.844238C15.6547 0.844238 13.2262 3.29271 13.2262 6.29432C13.2262 6.72621 13.2627 7.14148 13.3524 7.53682C8.8226 7.3159 4.81436 5.14484 2.12171 1.83758C1.65162 2.65318 1.37587 3.58672 1.37587 4.59169C1.37587 6.4787 2.34762 8.15143 3.7961 9.11986C2.9207 9.10324 2.06191 8.8491 1.33435 8.44877C1.33435 8.46538 1.33435 8.48698 1.33435 8.50857C1.33435 11.1564 3.22302 13.3557 5.69973 13.8623C5.25621 13.9836 4.77283 14.0417 4.27118 14.0417C3.92235 14.0417 3.57019 14.0218 3.23963 13.9487C3.9456 16.1065 5.94889 17.6928 8.33091 17.7443C6.47712 19.1944 4.12334 20.0682 1.57521 20.0682C1.12837 20.0682 0.699805 20.0483 0.27124 19.9934C2.68482 21.5499 5.54524 22.4386 8.62991 22.4386C18.6563 22.4386 24.138 14.1331 24.138 6.93384C24.138 6.69298 24.1297 6.46043 24.118 6.22954C25.1994 5.46211 26.108 4.50365 26.8489 3.40068Z" fill="#E0E0E0"/>
</svg>
