<svg width="50" height="50" viewBox="0 0 50 50" fill="none" xmlns="http://www.w3.org/2000/svg">
<rect x="0.136719" y="0.119141" width="49.3248" height="49.3259" rx="13.1536" fill="white"/>
<path d="M35.7235 18.0069C34.911 18.3633 34.0452 18.5996 33.1425 18.7143C34.0711 18.1599 34.7799 17.2886 35.1131 16.2385C34.2473 16.7547 33.2914 17.1193 32.2726 17.3228C31.4506 16.4474 30.2789 15.9053 29.0007 15.9053C26.5208 15.9053 24.5243 17.9182 24.5243 20.3858C24.5243 20.7408 24.5543 21.0822 24.6281 21.4072C20.9041 21.2256 17.6089 19.4408 15.3953 16.7219C15.0088 17.3924 14.7821 18.1599 14.7821 18.986C14.7821 20.5374 15.581 21.9125 16.7718 22.7086C16.0521 22.695 15.3461 22.4861 14.748 22.157C14.748 22.1706 14.748 22.1884 14.748 22.2061C14.748 24.3829 16.3007 26.1909 18.3368 26.6074C17.9722 26.7071 17.5748 26.7549 17.1624 26.7549C16.8756 26.7549 16.5861 26.7385 16.3143 26.6784C16.8947 28.4523 18.5416 29.7565 20.4999 29.7988C18.9759 30.991 17.0408 31.7093 14.946 31.7093C14.5787 31.7093 14.2263 31.6929 13.874 31.6478C15.8582 32.9274 18.2098 33.658 20.7457 33.658C28.9884 33.658 33.4948 26.83 33.4948 20.9115C33.4948 20.7135 33.488 20.5223 33.4785 20.3325C34.3675 19.7016 35.1144 18.9137 35.7235 18.0069Z" fill="#03A9F4"/>
</svg>
