<svg width="22" height="22" viewBox="0 0 22 22" fill="none" xmlns="http://www.w3.org/2000/svg">
<path d="M10.9317 0.11319C6.61687 0.11319 2.51947 -0.270644 0.954429 3.74595C0.307971 5.40487 0.40185 7.55933 0.40185 10.6443C0.40185 13.3513 0.315101 15.8955 0.954429 17.5414C2.51591 21.5604 6.64658 21.1753 10.9294 21.1753C15.0612 21.1753 19.3214 21.6055 20.9055 17.5414C21.5531 15.8658 21.4581 13.7435 21.4581 10.6443C21.4581 6.53023 21.685 3.87429 19.6898 1.88025C17.6696 -0.139927 14.9376 0.11319 10.927 0.11319H10.9317ZM9.9882 2.01097C18.9887 1.99671 20.1342 0.996129 19.5021 14.8962C19.2775 19.8123 15.5342 19.2728 10.9329 19.2728C2.54324 19.2728 2.30201 19.0328 2.30201 10.6395C2.30201 2.14882 2.96748 2.01572 9.9882 2.00859V2.01097ZM16.5526 3.75902C15.855 3.75902 15.2894 4.32467 15.2894 5.02223C15.2894 5.71978 15.855 6.28543 16.5526 6.28543C17.2501 6.28543 17.8158 5.71978 17.8158 5.02223C17.8158 4.32467 17.2501 3.75902 16.5526 3.75902ZM10.9317 5.23613C7.94544 5.23613 5.52479 7.65797 5.52479 10.6443C5.52479 13.6306 7.94544 16.0512 10.9317 16.0512C13.918 16.0512 16.3375 13.6306 16.3375 10.6443C16.3375 7.65797 13.918 5.23613 10.9317 5.23613ZM10.9317 7.13391C15.5722 7.13391 15.5782 14.1546 10.9317 14.1546C6.29246 14.1546 6.28533 7.13391 10.9317 7.13391Z" fill="white"/>
</svg>
