<svg width="61" height="61" viewBox="0 0 61 61" fill="none" xmlns="http://www.w3.org/2000/svg">
<rect x="0.569214" y="0.574219" width="58.9986" height="59" rx="15.5" stroke="#E0E0E0"/>
<path d="M40.484 31.4376C39.9734 30.7878 40.1195 30.4987 40.484 29.9178C40.4905 29.9112 44.7051 24.0415 45.1394 22.0509L45.142 22.0496C45.3578 21.3241 45.142 20.791 44.0985 20.791H40.6458C39.7668 20.791 39.3616 21.2485 39.1444 21.7605C39.1444 21.7605 37.3865 26.0016 34.8996 28.7508C34.0969 29.5452 33.7259 29.7998 33.2877 29.7998C33.0719 29.7998 32.7364 29.5452 32.7364 28.8197V22.0496C32.7364 21.1796 32.4903 20.791 31.7627 20.791H26.3336C25.7822 20.791 25.4546 21.1968 25.4546 21.5748C25.4546 22.3997 26.6981 22.5893 26.827 24.9102V29.9457C26.827 31.0491 26.6283 31.252 26.1875 31.252C25.0138 31.252 22.165 26.9936 20.4768 22.1199C20.136 21.1743 19.8031 20.7923 18.9176 20.7923H15.4635C14.478 20.7923 14.2793 21.2499 14.2793 21.7618C14.2793 22.6662 15.453 27.1633 19.7373 33.1047C22.5927 37.1601 26.6138 39.3576 30.2718 39.3576C32.4706 39.3576 32.739 38.8696 32.739 38.0301C32.739 34.155 32.5403 33.789 33.6417 33.789C34.1522 33.789 35.0312 34.0436 37.0839 35.9997C39.43 38.3192 39.8155 39.3576 41.1287 39.3576H44.5814C45.5657 39.3576 46.0644 38.8696 45.7775 37.9068C45.1209 35.8817 40.684 31.7161 40.484 31.4376Z" fill="#E0E0E0"/>
</svg>
