<svg width="61" height="61" viewBox="0 0 61 61" fill="none" xmlns="http://www.w3.org/2000/svg">
<rect x="0.564331" y="0.574219" width="58.9986" height="59" rx="15.5" stroke="#E0E0E0"/>
<path d="M39.9515 18.1057H20.1756C16.2956 18.1057 13.1502 21.2511 13.1502 25.1311V35.017C13.1502 38.897 16.2956 42.0423 20.1756 42.0423H39.9515C43.8315 42.0423 46.9769 38.897 46.9769 35.017V25.1311C46.9769 21.2511 43.8315 18.1057 39.9515 18.1057ZM35.2003 30.555L25.9505 34.9666C25.704 35.0842 25.4193 34.9045 25.4193 34.6314V25.5325C25.4193 25.2555 25.7115 25.076 25.9585 25.2012L35.2083 29.8886C35.4833 30.0279 35.4786 30.4223 35.2003 30.555Z" fill="#E0E0E0"/>
</svg>
